<svg width="147" height="46" viewBox="0 0 147 46" fill="none" xmlns="http://www.w3.org/2000/svg">
<path d="M8.2248 46C5.01797 46 2.40894 43.3663 2.40894 40.1292V19.0904C2.40894 18.198 3.12579 17.477 4.00728 17.477C4.88878 17.477 5.60563 18.2006 5.60563 19.0904V40.1266C5.60563 41.5841 6.78097 42.7706 8.2248 42.7706C9.66863 42.7706 10.844 41.5841 10.844 40.1266V34.0104C10.844 33.4325 11.1505 32.8981 11.6444 32.6117C12.1409 32.3253 12.7513 32.3253 13.2453 32.6168C15.373 33.8672 17.8048 34.5269 20.2719 34.5269C24.0487 34.5269 27.5874 33.0336 30.2395 30.3206C32.8916 27.6077 34.3253 24.0151 34.2771 20.2001C34.1783 12.5088 27.7925 6.24927 20.0389 6.24927C19.1549 6.24927 18.4406 5.52565 18.4406 4.63582C18.4406 3.74599 19.1574 3.02237 20.0389 3.02237C29.5302 3.02237 37.3522 10.7086 37.4738 20.1592C37.5346 24.8436 35.7742 29.2569 32.5167 32.5887C29.2592 35.9204 24.9099 37.7563 20.2719 37.7563C18.1341 37.7563 16.019 37.3523 14.0407 36.575V40.1292C14.0407 43.3663 11.4316 46 8.2248 46Z" fill="#1B69B1"/>
<path d="M22.1666 12.5803C22.1666 12.5778 22.1666 12.5752 22.1692 12.5752C19.0383 11.9615 16.5256 9.46337 15.8391 6.31573C15.8366 6.31573 15.834 6.31573 15.834 6.31829C15.0311 2.70272 11.8344 0 8.01201 0C3.58679 0 0 3.62068 0 8.08772C0 12.0689 2.84714 15.3751 6.59857 16.0476L6.59604 16.0501C9.8662 16.7584 11.6419 19.1696 12.3334 21.9235C13.03 25.6746 16.29 28.5128 20.2061 28.5128C24.6313 28.5128 28.2181 24.8922 28.2181 20.4251C28.2206 16.6382 25.6445 13.4625 22.1666 12.5803Z" fill="#F7AB4B"/>
<path d="M55.2912 27.6001C53.9259 27.6001 52.6492 27.2114 51.5195 26.5798V30.267C51.5195 31.3153 50.6583 32.1847 49.5893 32.1847C48.5204 32.1847 47.7174 31.3153 47.7174 30.3565V14.2603C47.7174 13.2708 48.5204 12.4628 49.4981 12.4628C50.2099 12.4628 50.8356 12.8821 51.1319 13.5111C52.3199 12.7006 53.746 12.2531 55.2887 12.2531C59.4758 12.2531 62.8599 15.6692 62.8599 19.8959C62.8625 24.1507 59.4783 27.6001 55.2912 27.6001ZM55.2912 16.1192C53.2116 16.1192 51.5195 17.7966 51.5195 19.8959C51.5195 21.9952 53.2116 23.7339 55.2912 23.7339C57.3708 23.7339 59.0629 21.9952 59.0629 19.8959C59.0629 17.7966 57.3708 16.1192 55.2912 16.1192Z" fill="#3B3A3C"/>
<path d="M67.8526 21.0951C68.6251 23.9436 72.5438 24.992 75.1883 23.2839C75.9912 22.6856 77.0576 22.9234 77.5946 23.7646C78.1291 24.5752 77.9518 25.6823 77.1792 26.1937C72.8731 29.101 66.9635 27.6026 64.9142 23.1663C62.5382 18.2799 66.1605 12.3452 71.6851 12.3452C74.2688 12.3452 76.584 13.6952 78.0101 15.9121C78.8713 17.3517 79.4362 19.0905 78.7826 20.259C78.1595 21.1591 77.1488 21.0977 76.0495 21.0977H67.8526V21.0951ZM75.396 18.3361C75.0692 16.7483 73.5241 15.6079 71.6851 15.6079C69.8131 15.6079 68.2705 16.7483 67.9134 18.3361H75.396Z" fill="#3B3A3C"/>
<path d="M95.8857 14.2602V25.6516C95.8857 26.6411 95.0549 27.4491 94.0442 27.4491C93.3324 27.4491 92.7067 27.0298 92.4104 26.4008C91.2224 27.2113 89.7963 27.6588 88.2537 27.6588C84.0665 27.6588 80.7103 24.212 80.7103 19.9853C80.7103 15.7893 84.0665 12.3425 88.2537 12.3425C89.7684 12.3425 91.1945 12.7925 92.3825 13.5724C92.6485 12.9127 93.302 12.4627 94.0442 12.4627C95.0549 12.4601 95.8857 13.2707 95.8857 14.2602ZM92.0862 19.9853C92.0862 17.9167 90.3941 16.2086 88.3145 16.2086C86.2348 16.2086 84.5428 17.9167 84.5428 19.9853C84.5428 22.0846 86.2348 23.7926 88.3145 23.7926C90.3941 23.7926 92.0862 22.0846 92.0862 19.9853Z" fill="#3B3A3C"/>
<path d="M111.18 18.8449V25.5289C111.18 26.5772 110.349 27.4466 109.28 27.4466C108.211 27.4466 107.381 26.5772 107.381 25.5289V18.8449C107.381 17.3772 106.193 16.178 104.739 16.178C103.285 16.178 102.097 17.3772 102.097 18.8449V25.5289C102.097 26.5772 101.235 27.4466 100.197 27.4466C99.128 27.4466 98.2668 26.5772 98.2668 25.5289V14.291C98.2668 13.2707 99.0697 12.4627 100.078 12.4627C100.643 12.4627 101.177 12.7619 101.504 13.1812C102.454 12.6417 103.553 12.3119 104.741 12.3119C108.3 12.3119 111.18 15.2498 111.18 18.8449Z" fill="#3B3A3C"/>
<path d="M119.734 27.6895C116.17 27.6895 113.26 24.7516 113.26 21.1539V14.4086C113.26 13.3295 114.121 12.4602 115.16 12.4602C116.229 12.4602 117.09 13.3295 117.09 14.4086V21.1539C117.09 22.6216 118.278 23.8208 119.732 23.8208C121.186 23.8208 122.374 22.6216 122.374 21.1539V14.4086C122.374 13.3295 123.235 12.4602 124.273 12.4602C125.342 12.4602 126.204 13.3295 126.204 14.4086V21.1539C126.209 24.7516 123.298 27.6895 119.734 27.6895Z" fill="#3B3A3C"/>
<path d="M136.663 25.5008C136.663 26.5798 135.801 27.4492 134.732 27.4492H134.048C130.872 27.4492 128.288 24.8411 128.288 21.6346V9.64239C128.288 8.56334 129.15 7.69397 130.219 7.69397C131.257 7.69397 132.118 8.56334 132.118 9.64239V12.4602H134.968C135.887 12.4602 136.602 13.2094 136.602 14.1094C136.602 15.0095 135.89 15.7587 134.968 15.7587H132.118V21.6346C132.118 22.7136 132.98 23.583 134.048 23.583H134.732C135.801 23.583 136.663 24.4524 136.663 25.5008Z" fill="#3B3A3C"/>
<path d="M143.877 15.9376C143.165 15.8175 142.539 15.6385 141.888 16.0271C141.354 16.3263 141.296 17.1062 141.83 17.4667C142.306 17.7659 142.603 17.7966 143.076 17.8861C144.918 18.2747 146.372 19.5941 146.848 21.4223C147.324 23.2813 146.671 25.3192 145.186 26.5184C143.821 27.6588 141.8 27.8966 140.049 27.4773C139.337 27.2983 138.415 26.9377 137.942 26.3394C137.466 25.7411 137.438 24.6902 137.853 24.0918C138.537 22.9821 139.753 23.1918 140.852 23.5523C141.564 23.7927 142.752 23.8822 143.048 23.0435C143.345 22.2329 142.722 21.6346 141.326 21.2459C139.692 20.7959 138.058 19.3282 137.792 17.4386C137.316 14.1708 140.88 11.5933 144.414 12.5522C144.948 12.7031 145.543 12.9715 145.928 13.3628C146.433 13.8435 146.64 14.5313 146.225 15.3112C145.69 16.2394 144.738 16.0885 143.877 15.9376Z" fill="#3B3A3C"/>
<path d="M52.3302 37.5032C52.3302 38.6819 51.3879 39.6408 50.2125 39.6408C49.5666 39.6408 48.9891 39.3493 48.599 38.889V39.3314C48.599 39.4746 48.4825 39.5897 48.3432 39.5897C48.2013 39.5897 48.0949 39.472 48.0949 39.3314V34.3785C48.0949 34.22 48.219 34.087 48.3761 34.087C48.5407 34.087 48.6648 34.22 48.6648 34.3785V36.0329C49.0549 35.6161 49.5995 35.3553 50.2125 35.3553C51.3879 35.3579 52.3302 36.3167 52.3302 37.5032ZM51.7602 37.5032C51.7602 36.6415 51.0662 35.9408 50.2125 35.9408C49.3614 35.9408 48.6648 36.6415 48.6648 37.5032C48.6648 38.3649 49.3589 39.0578 50.2125 39.0578C51.0636 39.0578 51.7602 38.3649 51.7602 37.5032Z" fill="black"/>
<path d="M56.8314 37.3625C56.8238 37.5057 56.7478 37.6131 56.6161 37.6643C56.4742 37.7154 56.3096 37.7052 56.1601 37.7052H54.4225C54.0425 37.7052 53.6701 37.7052 53.2978 37.7052C53.3383 38.0478 53.4878 38.3649 53.736 38.6155C54.0248 38.907 54.4149 39.0655 54.8201 39.0655C55.0354 39.0655 55.2508 39.0246 55.4407 38.9402C55.6307 38.8481 55.8055 38.7305 55.9448 38.572C56.0512 38.4544 56.2336 38.4544 56.3501 38.5643C56.4666 38.6743 56.4742 38.8558 56.3678 38.9734C56.1703 39.1831 55.9372 39.3493 55.6814 39.4669C55.4078 39.5922 55.119 39.651 54.8201 39.651C54.2578 39.651 53.7284 39.426 53.3307 39.0246C53.0495 38.7407 52.8494 38.3802 52.7608 37.9967C52.6037 37.2858 52.8013 36.5008 53.3155 35.9843C53.7056 35.5905 54.2173 35.3758 54.7644 35.3758C55.4838 35.3758 56.1551 35.7772 56.5274 36.396C56.6439 36.5801 56.725 36.7795 56.7756 36.9892C56.7984 37.0941 56.8314 37.227 56.8314 37.3625ZM56.2209 37.2117C56.1804 36.9611 56.0892 36.7437 55.9473 36.552C55.6738 36.1582 55.2432 35.9076 54.7644 35.9076C54.2831 35.9076 53.855 36.1582 53.5815 36.552C53.4396 36.7437 53.351 36.9688 53.3079 37.2117H56.2209Z" fill="black"/>
<path d="M59.3061 35.9153C59.1567 36.1658 58.9008 35.9485 58.645 35.9153C58.3638 35.8564 58.0067 35.9332 57.8268 36.1658C57.6521 36.3985 57.6951 36.7181 57.918 36.892C58.1485 37.0582 58.4398 37.0915 58.6957 37.2014C59.101 37.3778 59.4252 37.7281 59.491 38.1858C59.5645 38.687 59.3087 39.2138 58.8527 39.4643C58.2397 39.7993 57.5609 39.582 57.2974 39.3979C57.1657 39.3058 57.1227 39.1319 57.2062 38.9964C57.3126 38.8302 57.495 38.8558 57.6445 38.9299C57.918 39.0808 58.2904 39.1294 58.5715 38.9708C58.8375 38.8277 58.9946 38.5438 58.9439 38.2447C58.878 37.8023 58.4652 37.6847 58.1004 37.5594C57.7356 37.4264 57.4064 37.2423 57.2569 36.8664C57.1404 36.5571 57.1911 36.2144 57.3633 35.9383C57.7433 35.3629 58.5867 35.2274 59.1668 35.5547C59.3061 35.6314 59.3897 35.7746 59.3061 35.9153Z" fill="black"/>
<path d="M62.1938 39.2828C62.1938 39.449 62.0621 39.5845 61.8949 39.5845H61.515C60.7779 39.5845 60.1649 38.9658 60.1649 38.2217V34.3632C60.1649 34.2123 60.2966 34.0794 60.4638 34.0794C60.6132 34.0794 60.7449 34.2123 60.7449 34.3632V35.4064H61.9456C62.0773 35.4064 62.1938 35.5241 62.1938 35.657C62.1938 35.8079 62.0773 35.9255 61.9456 35.9255H60.7449V38.2217C60.7449 38.6564 61.092 38.999 61.515 38.999H61.8949C62.0621 38.999 62.1938 39.132 62.1938 39.2828Z" fill="black"/>
<path d="M66.9534 39.2828C66.9534 39.449 66.8216 39.5845 66.6545 39.5845H66.2745C65.5374 39.5845 64.9244 38.9658 64.9244 38.2217V34.3632C64.9244 34.2123 65.0561 34.0794 65.2233 34.0794C65.3727 34.0794 65.5044 34.2123 65.5044 34.3632V35.4064H66.7051C66.8368 35.4064 66.9534 35.5241 66.9534 35.657C66.9534 35.8079 66.8368 35.9255 66.7051 35.9255H65.5044V38.2217C65.5044 38.6564 65.8515 38.999 66.2745 38.999H66.6545C66.8216 38.999 66.9534 39.132 66.9534 39.2828Z" fill="black"/>
<path d="M70.9581 37.1273V39.2905C70.9581 39.449 70.8264 39.582 70.6694 39.582C70.5123 39.582 70.3806 39.449 70.3806 39.2905V37.1273C70.3806 36.4676 69.8436 35.9255 69.1901 35.9255C68.5289 35.9255 67.9995 36.4676 67.9995 37.1273V39.2905C67.9995 39.449 67.8678 39.582 67.7108 39.582C67.5461 39.582 67.4119 39.449 67.4119 39.2905V34.3121C67.4119 34.1535 67.5436 34.0206 67.7108 34.0206C67.8678 34.0206 67.9995 34.1535 67.9995 34.3121V35.8079C68.3136 35.5164 68.7265 35.34 69.1901 35.34C70.1653 35.34 70.9581 36.1429 70.9581 37.1273Z" fill="black"/>
<path d="M71.9866 34.5038C71.9866 34.67 71.8701 34.7876 71.6978 34.7876C71.5484 34.7876 71.4167 34.67 71.4167 34.5038C71.4167 34.3529 71.5484 34.22 71.6978 34.22C71.8701 34.22 71.9866 34.3555 71.9866 34.5038ZM71.713 39.5845C71.5484 39.5845 71.4141 39.4515 71.4141 39.2828V35.6647C71.4141 35.4882 71.5458 35.3553 71.7206 35.3553C71.8701 35.3553 72.0018 35.4882 72.0018 35.6647V39.2828C72.0018 39.449 71.8701 39.5845 71.713 39.5845Z" fill="black"/>
<path d="M76.0648 37.0864V39.2905C76.0648 39.4491 75.933 39.582 75.776 39.582C75.6189 39.582 75.4948 39.4491 75.4948 39.2905V37.0864C75.4948 36.4523 74.973 35.9256 74.3448 35.9256C73.7065 35.9256 73.1948 36.4523 73.1948 37.0864V39.2905C73.1948 39.4491 73.0707 39.582 72.9136 39.582C72.749 39.582 72.6249 39.4491 72.6249 39.2905V35.6647C72.6249 35.5241 72.7414 35.4065 72.8807 35.4065C73.0226 35.4065 73.129 35.5241 73.129 35.6647V35.8565C73.4431 35.5395 73.8737 35.3477 74.3448 35.3477C75.2947 35.3477 76.0648 36.125 76.0648 37.0864Z" fill="black"/>
<path d="M80.8066 35.6494V39.224C80.8066 40.3184 79.9302 41.2031 78.846 41.2031C78.5725 41.2031 78.2989 41.152 78.0431 41.0369C77.9189 40.9781 77.8607 40.8196 77.9189 40.6943C77.9772 40.5613 78.1267 40.5025 78.2584 40.5613C78.4408 40.6457 78.6383 40.6866 78.846 40.6866C79.649 40.6866 80.2949 40.0346 80.2949 39.224V38.9146C79.9049 39.3749 79.3273 39.6587 78.689 39.6587C77.5136 39.6587 76.5612 38.6973 76.5612 37.5211C76.5612 36.3346 77.5136 35.3732 78.689 35.3732C79.3273 35.3732 79.9049 35.657 80.2949 36.1173V35.6494C80.2949 35.5062 80.4115 35.3911 80.5508 35.3911C80.6901 35.3911 80.8066 35.5062 80.8066 35.6494ZM80.2291 37.5211C80.2291 36.6594 79.535 35.9587 78.689 35.9587C77.8379 35.9587 77.1413 36.6594 77.1413 37.5211C77.1413 38.3725 77.8353 39.0757 78.689 39.0757C79.5325 39.0731 80.2291 38.3725 80.2291 37.5211Z" fill="black"/>
<path d="M83.4055 35.9153C83.2561 36.1658 83.0002 35.9485 82.7444 35.9153C82.4632 35.8564 82.106 35.9332 81.9262 36.1658C81.7514 36.3985 81.7945 36.7181 82.0174 36.892C82.2479 37.0582 82.5392 37.0915 82.795 37.2014C83.2003 37.3778 83.5246 37.7281 83.5904 38.1858C83.6639 38.687 83.408 39.2138 82.9521 39.4643C82.3391 39.7993 81.6602 39.582 81.3968 39.3979C81.2651 39.3058 81.222 39.1319 81.3056 38.9964C81.412 38.8302 81.5944 38.8558 81.7438 38.9299C82.0174 39.0808 82.3898 39.1294 82.6709 38.9708C82.9344 38.8277 83.0939 38.5438 83.0433 38.2447C82.9774 37.8023 82.5645 37.6847 82.1998 37.5594C81.835 37.4264 81.5057 37.2423 81.3563 36.8664C81.2397 36.5571 81.2904 36.2144 81.4627 35.9383C81.8426 35.3629 82.6861 35.2274 83.2662 35.5547C83.4055 35.6314 83.4891 35.7746 83.4055 35.9153Z" fill="black"/>
<path d="M87.1139 34.5038C87.1139 34.67 86.9973 34.7876 86.8251 34.7876C86.6756 34.7876 86.5439 34.67 86.5439 34.5038C86.5439 34.3529 86.6756 34.22 86.8251 34.22C86.9973 34.22 87.1139 34.3555 87.1139 34.5038ZM86.8403 39.5845C86.6756 39.5845 86.5414 39.4515 86.5414 39.2828V35.6647C86.5414 35.4882 86.6731 35.3553 86.8479 35.3553C86.9973 35.3553 87.1291 35.4882 87.1291 35.6647V39.2828C87.1291 39.449 86.9973 39.5845 86.8403 39.5845Z" fill="black"/>
<path d="M91.1921 37.0864V39.2905C91.1921 39.4491 91.0603 39.582 90.9033 39.582C90.7463 39.582 90.6221 39.4491 90.6221 39.2905V37.0864C90.6221 36.4523 90.1003 35.9256 89.4721 35.9256C88.8338 35.9256 88.3221 36.4523 88.3221 37.0864V39.2905C88.3221 39.4491 88.198 39.582 88.041 39.582C87.8763 39.582 87.7522 39.4491 87.7522 39.2905V35.6647C87.7522 35.5241 87.8687 35.4065 88.008 35.4065C88.1474 35.4065 88.2563 35.5241 88.2563 35.6647V35.8565C88.5704 35.5395 89.001 35.3477 89.4721 35.3477C90.4246 35.3477 91.1921 36.125 91.1921 37.0864Z" fill="black"/>
<path d="M94.3457 39.5846C94.181 39.5846 94.0468 39.4516 94.0468 39.2931V34.3146C94.0468 34.1561 94.1785 34.0231 94.3457 34.0231C94.5027 34.0231 94.6344 34.1561 94.6344 34.3146V39.2931C94.637 39.449 94.5027 39.5846 94.3457 39.5846Z" fill="black"/>
<path d="M95.787 34.5038C95.787 34.67 95.6705 34.7876 95.4983 34.7876C95.3488 34.7876 95.2171 34.67 95.2171 34.5038C95.2171 34.3529 95.3488 34.22 95.4983 34.22C95.6705 34.22 95.787 34.3555 95.787 34.5038ZM95.5134 39.5845C95.3488 39.5845 95.2146 39.4515 95.2146 39.2828V35.6647C95.2146 35.4882 95.3463 35.3553 95.521 35.3553C95.6705 35.3553 95.8022 35.4882 95.8022 35.6647V39.2828C95.8022 39.449 95.6705 39.5845 95.5134 39.5845Z" fill="black"/>
<path d="M98.3099 36.4011C98.3099 36.5443 98.1934 36.6594 98.0541 36.6594H96.8711V39.2905C96.8711 39.449 96.747 39.582 96.5824 39.582C96.4253 39.582 96.3012 39.449 96.3012 39.2905V35.4397C96.3012 34.688 96.9041 34.0768 97.6488 34.0768H98.0212C98.1782 34.0768 98.3099 34.2098 98.3099 34.3683C98.3099 34.5269 98.1782 34.6522 98.0212 34.6522H97.6488C97.2182 34.6522 96.8711 35.0101 96.8711 35.4372V36.148H98.0541C98.1959 36.1505 98.3099 36.2579 98.3099 36.4011Z" fill="black"/>
<path d="M102.814 37.3625C102.806 37.5057 102.73 37.6131 102.598 37.6643C102.457 37.7154 102.292 37.7052 102.142 37.7052H100.405C100.025 37.7052 99.6524 37.7052 99.2801 37.7052C99.3206 38.0478 99.4701 38.3649 99.7183 38.6155C100.007 38.907 100.397 39.0655 100.802 39.0655C101.018 39.0655 101.233 39.0246 101.423 38.9402C101.613 38.8481 101.788 38.7305 101.927 38.572C102.033 38.4544 102.216 38.4544 102.332 38.5643C102.449 38.6717 102.456 38.8558 102.35 38.9734C102.153 39.1831 101.919 39.3493 101.664 39.4669C101.39 39.5922 101.101 39.651 100.802 39.651C100.24 39.651 99.7107 39.426 99.313 39.0246C99.0318 38.7407 98.8343 38.3802 98.7431 37.9967C98.586 37.2858 98.7836 36.5008 99.2978 35.9843C99.6879 35.5905 100.2 35.3758 100.747 35.3758C101.466 35.3758 102.137 35.7772 102.51 36.396C102.626 36.5801 102.707 36.7795 102.758 36.9892C102.778 37.0941 102.814 37.227 102.814 37.3625ZM102.201 37.2117C102.16 36.9611 102.069 36.7437 101.927 36.552C101.654 36.1582 101.223 35.9076 100.744 35.9076C100.263 35.9076 99.8348 36.1582 99.5612 36.552C99.4194 36.7437 99.3282 36.9688 99.2877 37.2117H102.201Z" fill="black"/>
<path d="M109.79 35.657V39.3237C109.79 39.4669 109.683 39.582 109.541 39.582C109.402 39.582 109.286 39.4644 109.286 39.3237V38.8967C108.895 39.357 108.318 39.6485 107.672 39.6485C106.497 39.6485 105.544 38.687 105.544 37.5006C105.544 36.3218 106.497 35.363 107.672 35.363C108.318 35.363 108.895 35.6545 109.286 36.1147V35.6545C109.286 35.5113 109.402 35.4039 109.541 35.4039C109.681 35.4064 109.79 35.5164 109.79 35.657ZM109.217 37.5032C109.217 36.6415 108.521 35.9485 107.669 35.9485C106.816 35.9485 106.122 36.6415 106.122 37.5032C106.122 38.3725 106.816 39.0655 107.669 39.0655C108.523 39.0655 109.217 38.3725 109.217 37.5032Z" fill="black"/>
<path d="M112.769 35.9664C112.685 36.0994 112.503 36.1505 112.371 36.0661C112.221 35.9818 112.064 35.9332 111.9 35.9332C111.421 35.9332 111.031 36.3346 111.031 36.8179V39.2828C111.031 39.449 110.899 39.5845 110.75 39.5845C110.585 39.5845 110.451 39.4516 110.451 39.2828V35.6749C110.451 35.5241 110.567 35.4064 110.714 35.4064C110.846 35.4064 110.962 35.5241 110.962 35.6749V35.7082C111.203 35.4908 111.55 35.3578 111.897 35.3578C112.171 35.3578 112.434 35.4422 112.667 35.5752C112.801 35.657 112.852 35.8411 112.769 35.9664Z" fill="black"/>
<path d="M117.313 37.3625C117.305 37.5057 117.229 37.6131 117.097 37.6643C116.956 37.7154 116.791 37.7052 116.642 37.7052H114.904C114.524 37.7052 114.152 37.7052 113.779 37.7052C113.82 38.0478 113.969 38.3649 114.217 38.6155C114.506 38.907 114.896 39.0655 115.302 39.0655C115.517 39.0655 115.732 39.0246 115.922 38.9402C116.112 38.8481 116.287 38.7305 116.426 38.572C116.533 38.4544 116.715 38.4544 116.831 38.5643C116.948 38.6717 116.956 38.8558 116.849 38.9734C116.652 39.1831 116.419 39.3493 116.163 39.4669C115.889 39.5922 115.6 39.651 115.302 39.651C114.739 39.651 114.21 39.426 113.812 39.0246C113.531 38.7407 113.333 38.3802 113.242 37.9967C113.085 37.2858 113.283 36.5008 113.797 35.9843C114.187 35.5905 114.699 35.3758 115.246 35.3758C115.965 35.3758 116.636 35.7772 117.009 36.396C117.125 36.5801 117.206 36.7795 117.257 36.9892C117.28 37.0941 117.313 37.227 117.313 37.3625ZM116.7 37.2117C116.659 36.9611 116.568 36.7437 116.426 36.552C116.153 36.1582 115.722 35.9076 115.243 35.9076C114.765 35.9076 114.334 36.1582 114.06 36.552C113.921 36.7437 113.83 36.9688 113.787 37.2117H116.7Z" fill="black"/>
<path d="M122.012 36.4011C122.012 36.5443 121.895 36.6594 121.756 36.6594H120.573V39.2905C120.573 39.449 120.449 39.582 120.284 39.582C120.127 39.582 120.003 39.449 120.003 39.2905V35.4397C120.003 34.688 120.606 34.0768 121.35 34.0768H121.723C121.88 34.0768 122.012 34.2098 122.012 34.3683C122.012 34.5269 121.88 34.6522 121.723 34.6522H121.35C120.92 34.6522 120.573 35.0101 120.573 35.4372V36.148H121.756C121.898 36.1505 122.012 36.2579 122.012 36.4011Z" fill="black"/>
<path d="M126.622 37.5108C126.622 38.6896 125.669 39.6485 124.504 39.6485C123.339 39.6485 122.386 38.687 122.386 37.5108C122.386 36.3346 123.339 35.3732 124.504 35.3732C125.669 35.3732 126.622 36.3346 126.622 37.5108ZM122.956 37.5108C122.956 38.37 123.65 39.0731 124.504 39.0731C125.358 39.0731 126.044 38.3725 126.044 37.5108C126.044 36.6491 125.358 35.9562 124.504 35.9562C123.65 35.9562 122.956 36.6517 122.956 37.5108Z" fill="black"/>
<path d="M129.519 35.9664C129.436 36.0994 129.254 36.1505 129.122 36.0661C128.972 35.9818 128.815 35.9332 128.651 35.9332C128.172 35.9332 127.782 36.3346 127.782 36.8179V39.2828C127.782 39.449 127.65 39.5845 127.501 39.5845C127.336 39.5845 127.202 39.4516 127.202 39.2828V35.6749C127.202 35.5241 127.318 35.4064 127.465 35.4064C127.597 35.4064 127.713 35.5241 127.713 35.6749V35.7082C127.954 35.4908 128.301 35.3578 128.648 35.3578C128.922 35.3578 129.185 35.4422 129.418 35.5752C129.552 35.657 129.601 35.8411 129.519 35.9664Z" fill="black"/>
<path d="M134.178 36.4011C134.178 36.5443 134.061 36.6594 133.922 36.6594H132.739V39.2905C132.739 39.449 132.615 39.582 132.45 39.582C132.293 39.582 132.169 39.449 132.169 39.2905V35.4397C132.169 34.688 132.772 34.0768 133.517 34.0768H133.889C134.046 34.0768 134.178 34.2098 134.178 34.3683C134.178 34.5269 134.046 34.6522 133.889 34.6522H133.517C133.086 34.6522 132.739 35.0101 132.739 35.4372V36.148H133.922C134.061 36.1505 134.178 36.2579 134.178 36.4011Z" fill="black"/>
<path d="M136.992 35.9664C136.908 36.0994 136.729 36.1505 136.594 36.0661C136.445 35.9818 136.288 35.9332 136.123 35.9332C135.642 35.9332 135.254 36.3346 135.254 36.8179V39.2828C135.254 39.449 135.123 39.5845 134.973 39.5845C134.809 39.5845 134.674 39.4516 134.674 39.2828V35.6749C134.674 35.5241 134.791 35.4064 134.94 35.4064C135.072 35.4064 135.188 35.5241 135.188 35.6749V35.7082C135.429 35.4908 135.776 35.3578 136.123 35.3578C136.397 35.3578 136.66 35.4422 136.893 35.5752C137.025 35.657 137.076 35.8411 136.992 35.9664Z" fill="black"/>
<path d="M141.536 37.3625C141.529 37.5057 141.453 37.6131 141.321 37.6643C141.179 37.7154 141.014 37.7052 140.865 37.7052H139.127C138.747 37.7052 138.375 37.7052 138.003 37.7052C138.043 38.0478 138.193 38.3649 138.441 38.6155C138.73 38.907 139.12 39.0655 139.525 39.0655C139.74 39.0655 139.956 39.0246 140.146 38.9402C140.336 38.8481 140.51 38.7305 140.65 38.572C140.756 38.4544 140.938 38.4544 141.055 38.5643C141.171 38.6717 141.179 38.8558 141.073 38.9734C140.875 39.1831 140.642 39.3493 140.386 39.4669C140.113 39.5922 139.824 39.651 139.525 39.651C138.963 39.651 138.433 39.426 138.036 39.0246C137.754 38.7407 137.557 38.3802 137.466 37.9967C137.309 37.2858 137.506 36.5008 138.02 35.9843C138.41 35.5905 138.922 35.3758 139.469 35.3758C140.189 35.3758 140.86 35.7772 141.232 36.396C141.349 36.5801 141.43 36.7795 141.481 36.9892C141.503 37.0941 141.536 37.227 141.536 37.3625ZM140.923 37.2117C140.883 36.9611 140.792 36.7437 140.65 36.552C140.376 36.1582 139.946 35.9076 139.467 35.9076C138.985 35.9076 138.557 36.1582 138.284 36.552C138.142 36.7437 138.051 36.9688 138.01 37.2117H140.923Z" fill="black"/>
<path d="M146.121 37.3625C146.114 37.5057 146.038 37.6131 145.906 37.6643C145.764 37.7154 145.599 37.7052 145.45 37.7052H143.712C143.332 37.7052 142.96 37.7052 142.588 37.7052C142.628 38.0478 142.778 38.3649 143.026 38.6155C143.315 38.907 143.705 39.0655 144.11 39.0655C144.325 39.0655 144.541 39.0246 144.73 38.9402C144.92 38.8481 145.095 38.7305 145.235 38.572C145.341 38.4544 145.523 38.4544 145.64 38.5643C145.756 38.6717 145.764 38.8558 145.658 38.9734C145.46 39.1831 145.227 39.3493 144.971 39.4669C144.698 39.5922 144.409 39.651 144.11 39.651C143.548 39.651 143.018 39.426 142.62 39.0246C142.339 38.7407 142.142 38.3802 142.051 37.9967C141.893 37.2858 142.091 36.5008 142.605 35.9843C142.995 35.5905 143.507 35.3758 144.054 35.3758C144.774 35.3758 145.445 35.7772 145.817 36.396C145.934 36.5801 146.015 36.7795 146.065 36.9892C146.088 37.0941 146.121 37.227 146.121 37.3625ZM145.508 37.2117C145.468 36.9611 145.376 36.7437 145.235 36.552C144.961 36.1582 144.53 35.9076 144.052 35.9076C143.573 35.9076 143.142 36.1582 142.869 36.552C142.729 36.7437 142.638 36.9688 142.595 37.2117H145.508Z" fill="black"/>
</svg>
